<svg xmlns="http://www.w3.org/2000/svg" width="1189" height="216" viewBox="0 0 1189 216">
  <g id="Group_25" data-name="Group 25" transform="translate(-365 -2676)">
    <path id="_96626" data-name="96626" d="M43.458,114.546a3.35,3.35,0,0,1,3.412-3.284h.814a3.287,3.287,0,1,1,0,6.568H46.87A3.35,3.35,0,0,1,43.458,114.546Zm73.929-69.129a10.978,10.978,0,0,0-7.738,10.36,11.162,11.162,0,0,0,11.356,10.931H151.9a11.162,11.162,0,0,0,11.356-10.931,10.978,10.978,0,0,0-7.738-10.359,3.445,3.445,0,0,0-4.324,2.06,3.257,3.257,0,0,0,2.14,4.162,4.387,4.387,0,0,1,3.1,4.137A4.455,4.455,0,0,1,151.9,60.14H121.005a4.455,4.455,0,0,1-4.532-4.362,4.388,4.388,0,0,1,3.1-4.137,3.257,3.257,0,0,0,2.14-4.162A3.444,3.444,0,0,0,117.388,45.418ZM66.342,141.462a3.443,3.443,0,0,0-4.324,2.06,3.257,3.257,0,0,0,2.14,4.162,4.387,4.387,0,0,1,3.1,4.136,4.455,4.455,0,0,1-4.532,4.363H31.832a4.455,4.455,0,0,1-4.532-4.363,4.389,4.389,0,0,1,3.1-4.137,3.257,3.257,0,0,0,2.14-4.162,3.445,3.445,0,0,0-4.324-2.06,10.978,10.978,0,0,0-7.738,10.359,11.162,11.162,0,0,0,11.356,10.931H62.725A11.162,11.162,0,0,0,74.08,151.821,10.977,10.977,0,0,0,66.342,141.462ZM37.9,138.85c-6.08-11.5-9.848-19.578-9.848-24.3,0-10.2,8.623-18.5,19.222-18.5s19.221,8.3,19.221,18.5c0,4.729-3.768,12.805-9.847,24.3,0,0-2.174,4.131-2.283,4.351-.877,1.771-2.51,5.066-7.092,5.066s-6.215-3.295-7.092-5.065C40.077,142.981,37.9,138.85,37.9,138.85Zm-3.024-24.3c0,4.1,6.381,16.17,9.105,21.324,0,0,2.9,5.593,3.1,5.816a.259.259,0,0,0,.395,0,8.72,8.72,0,0,0,.735-1.314c.13-.263,2.361-4.5,2.361-4.5,2.725-5.153,9.1-17.22,9.1-21.324a12.407,12.407,0,0,0-24.8,0ZM174.036,3.284v23.54a3.35,3.35,0,0,1-3.412,3.284H139.863V45.246h2.7a3.287,3.287,0,1,1,0,6.568H130.337a3.287,3.287,0,1,1,0-6.568h2.7V26.894c0-.023,0-.046,0-.07s0-.047,0-.07V3.354c0-.023,0-.046,0-.07A3.35,3.35,0,0,1,136.45,0h34.174A3.35,3.35,0,0,1,174.036,3.284Zm-6.824,3.284H139.863V23.54h27.349ZM146.169,78.092H48.344c-11.6,0-21.044-9.087-21.044-20.256S36.74,37.58,48.344,37.58h68.793a3.287,3.287,0,1,0,0-6.568H48.344c-15.366,0-27.868,12.033-27.868,26.824s12.5,26.825,27.868,26.825h97.825c11.6,0,21.043,9.086,21.043,20.256s-9.44,20.256-21.043,20.256H77.375a3.287,3.287,0,1,0,0,6.568h68.794c15.366,0,27.867-12.033,27.867-26.824S161.535,78.092,146.169,78.092Z" transform="translate(841.024 2676)" fill="#21273d"/>
    <path id="Path_5" data-name="Path 5" d="M140.785,50.481a14.43,14.43,0,0,0,2.4-8V38.335a3.176,3.176,0,0,0,1.986-2.985v-.985c0-8.868-6.853-16.082-15.277-16.082S114.613,25.5,114.613,34.365v.985a3.176,3.176,0,0,0,1.986,2.985v4.146a14.421,14.421,0,0,0,2.4,8A18.041,18.041,0,0,0,105.155,67.27H87.6a3.1,3.1,0,0,0-3.021,3.18V90.165H72.325V70.45A3.1,3.1,0,0,0,69.3,67.27H47.556a3.1,3.1,0,0,0-3.021,3.18V90.165H33.66V47.738L54.716,25.573,68.769,40.366a9.173,9.173,0,0,0,3.879,2.447v5.37L66.333,54.83a3.267,3.267,0,0,0-.885,2.248v5.873a3.025,3.025,0,1,0,6.041,0V58.4L75.668,54l4.178,4.4v4.078a3.025,3.025,0,1,0,6.041,0v-5.4A3.267,3.267,0,0,0,85,54.83l-6.314-6.647V42.588a9.24,9.24,0,0,0,3.261-2.222,10.18,10.18,0,0,0,0-13.876L60.028,3.411,60.011,3.4a10.741,10.741,0,0,0-15.7.025L17.568,31.577A14.07,14.07,0,0,0,6.652,45.529V62a3.1,3.1,0,0,0,3.021,3.18A3.1,3.1,0,0,0,12.694,62V57.367a12.906,12.906,0,0,0,14.925,0V91.3c-.143.063-.282.132-.422.2a19.185,19.185,0,0,0-14.5.176V85.527a3.1,3.1,0,0,0-3.021-3.18,3.1,3.1,0,0,0-3.021,3.18V95.644A21.681,21.681,0,0,0,0,111.383v48.236A3.1,3.1,0,0,0,3.02,162.8H140.764a3.1,3.1,0,0,0,3.021-3.18V106.576a12.058,12.058,0,0,0,10.874-12.257V68.387c0-8.82-5.966-16.2-13.874-17.907Zm-11.059-.371a7.466,7.466,0,0,1-7.087-7.628V38.53h14.5v3.951a7.466,7.466,0,0,1-7.087,7.628Zm9.161-17.939H132.91V25.178a9.6,9.6,0,0,1,5.978,6.992Zm-12.019-6.992v6.992h-5.978A9.6,9.6,0,0,1,126.869,25.178Zm-2.114,71.346a7.96,7.96,0,0,1,0,15.9H32.925a7.96,7.96,0,0,1,0-15.9Zm-2.719,22.259h2.719a13.049,13.049,0,0,0,2.114-.174v37.83h-4.833ZM19.493,106.669a14.56,14.56,0,0,0,3.565,7.631,4.105,4.105,0,0,1-2.9,1.212,4.471,4.471,0,0,1-.663-8.843ZM90.62,73.63h15.708V90.165H90.62Zm-40.044,0H66.284V90.165H50.576ZM44.358,19.917a10.953,10.953,0,0,0,4.464,2.867L32.557,39.905A13.948,13.948,0,0,0,25.331,32.4L41.645,15.226a11.726,11.726,0,0,0,2.713,4.69ZM78.639,33.428a3.524,3.524,0,0,1-.962,2.441,3.167,3.167,0,0,1-4.637,0L58.987,21.076l1.05-1.1a11.788,11.788,0,0,0,2.723-4.689l14.917,15.7A3.524,3.524,0,0,1,78.639,33.428ZM55.765,7.919a5.539,5.539,0,0,1,.242,7.275,3.149,3.149,0,0,0-.238.225,4.876,4.876,0,0,1-7.139,0,5.521,5.521,0,0,1,0-7.514c.046-.048.087-.1.13-.15a4.895,4.895,0,0,1,7.005.164ZM20.156,53.384a7.866,7.866,0,0,1,0-15.712,7.866,7.866,0,0,1,0,15.712Zm-14.115,58c0-8.193,6.332-14.859,14.115-14.859a13.584,13.584,0,0,1,1.427.076,14.576,14.576,0,0,0-1.646,3.654,10.83,10.83,0,0,0,.219,21.617,10.049,10.049,0,0,0,7.982-4.007,12.923,12.923,0,0,0,4.787.919h1.346v37.654H6.041ZM115.994,156.44H40.313V134.048H75.668a3.184,3.184,0,0,0,0-6.36H40.313v-8.9h75.681Zm16.916,0V115.915a14.38,14.38,0,0,0,4.833-7.218V156.44Zm15.708-62.121a5.845,5.845,0,0,1-4.833,5.864V73.147a3.025,3.025,0,1,0-6.041,0v27.106a13.722,13.722,0,0,0-12.989-10.087h-2.719V73.147a3.025,3.025,0,1,0-6.041,0V90.165h-3.625V70.45a3.23,3.23,0,0,0-1.2-2.53c.235-6.356,5.217-11.45,11.311-11.45h7.243c.054,0,.109,0,.163,0s.109,0,.163,0H137.3c6.243,0,11.322,5.346,11.322,11.918Zm0,0" transform="translate(372.26 2676)" fill="#21273d"/>
    <g id="Group_18" data-name="Group 18" transform="translate(127 -72)">
      <g id="Group_17" data-name="Group 17" transform="translate(1222.217 2748)">
        <g id="Group_16" data-name="Group 16" transform="translate(0 0)">
          <path id="Path_6" data-name="Path 6" d="M211.919,35.921,116.191.237a3.921,3.921,0,0,0-2.685,0L17.778,35.921a2.418,2.418,0,0,0-1.746,2.148V124.73a2.418,2.418,0,0,0,1.746,2.148l95.728,35.684a3.92,3.92,0,0,0,2.686,0l95.728-35.684a2.418,2.418,0,0,0,1.746-2.148V38.069A2.418,2.418,0,0,0,211.919,35.921ZM114.848,5.032l88.624,33.036-25.69,9.577a3.3,3.3,0,0,0-.523-.254L89.237,14.579ZM82.262,17.276l88.5,32.988L152.633,57.02,64.174,24.046Zm90.566,37.512V79.763L155.9,86.074V61.1Zm34.66,68.446-89.551,33.381V75.249L139.3,67.286c1.536-.573,2.18-2,1.438-3.184a3.542,3.542,0,0,0-4.124-1.111L114.848,71.1l-8.564-3.192a3.541,3.541,0,0,0-4.124,1.111c-.742,1.186-.1,2.612,1.438,3.184l8.161,3.042v81.365L22.209,123.233V41.868L90.4,67.287a3.842,3.842,0,0,0,1.34.238,3.269,3.269,0,0,0,2.783-1.348c.742-1.186.1-2.612-1.438-3.184L26.224,38.068,56.9,26.632l92.774,34.583c.014.015.029.028.043.042V89.873a2.325,2.325,0,0,0,1.447,2.02,3.788,3.788,0,0,0,1.642.365,3.856,3.856,0,0,0,1.342-.237l23.107-8.613A2.418,2.418,0,0,0,179,81.26V52.485l28.483-10.618v81.365Z" transform="translate(-16.032 0.001)" fill="#21273d"/>
        </g>
      </g>
      <path id="Path_7" data-name="Path 7" d="M563.83,2937.043l10.382,9.542,22.494-24.7" transform="translate(695.334 -85.592)" fill="none" stroke="#21273d" stroke-linecap="round" stroke-width="10"/>
    </g>
    <line id="Line_35" data-name="Line 35" x2="1174" transform="translate(372.5 2884.5)" fill="none" stroke="#8a8a8b" stroke-linecap="round" stroke-width="15"/>
    <line id="Line_36" data-name="Line 36" x2="45" transform="translate(656.5 2777.5)" fill="none" stroke="#8a8a8b" stroke-linecap="round" stroke-width="10"/>
    <line id="Line_41" data-name="Line 41" x2="45" transform="translate(1144.5 2777.5)" fill="none" stroke="#8a8a8b" stroke-linecap="round" stroke-width="10"/>
    <line id="Line_37" data-name="Line 37" x2="45" transform="translate(679.5 2795.5)" fill="none" stroke="#8a8a8b" stroke-linecap="round" stroke-width="8"/>
    <line id="Line_43" data-name="Line 43" x2="45" transform="translate(1167.5 2795.5)" fill="none" stroke="#8a8a8b" stroke-linecap="round" stroke-width="8"/>
    <line id="Line_39" data-name="Line 39" x2="45" transform="translate(611.5 2795.5)" fill="none" stroke="#8a8a8b" stroke-linecap="round" stroke-width="5"/>
    <line id="Line_40" data-name="Line 40" x2="45" transform="translate(1099.5 2795.5)" fill="none" stroke="#8a8a8b" stroke-linecap="round" stroke-width="5"/>
    <line id="Line_38" data-name="Line 38" x2="94" transform="translate(654.5 2813.5)" fill="none" stroke="#8a8a8b" stroke-linecap="round" stroke-width="10"/>
    <line id="Line_42" data-name="Line 42" x2="94" transform="translate(1142.5 2813.5)" fill="none" stroke="#8a8a8b" stroke-linecap="round" stroke-width="10"/>
  </g>
</svg>
